<?xml version="1.0" standalone="no"?>
<!DOCTYPE svg PUBLIC "-//W3C//DTD SVG 20010904//EN"
 "http://www.w3.org/TR/2001/REC-SVG-20010904/DTD/svg10.dtd">
<svg version="1.0" xmlns="http://www.w3.org/2000/svg"
 width="1280.000000pt" height="1264.000000pt" viewBox="0 0 1280.000000 1264.000000"
 preserveAspectRatio="xMidYMid meet">
<metadata>
Created by potrace 1.15, written by Peter Selinger 2001-2017
</metadata>
<g transform="translate(0.000000,1264.000000) scale(0.100000,-0.100000)"
fill="#000000" stroke="none">
<path d="M5191 12488 c-53 -135 -78 -176 -60 -100 11 47 24 212 17 212 -3 0
-27 -55 -53 -122 -26 -68 -61 -147 -77 -176 -37 -65 -153 -184 -207 -212 -22
-11 -44 -26 -48 -32 -11 -18 -103 -81 -109 -75 -3 3 5 27 18 53 20 42 32 53
103 90 44 23 97 50 118 59 21 10 42 26 48 36 5 11 8 19 7 20 -2 0 -39 7 -83
15 -105 21 -294 29 -308 15 -6 -6 -28 -11 -49 -11 -48 0 -108 -37 -137 -84
-12 -19 -30 -72 -40 -117 l-17 -83 -65 -27 c-36 -14 -126 -56 -201 -93 -74
-36 -140 -66 -146 -66 -6 0 -17 -7 -25 -15 -8 -8 -109 -61 -223 -119 -269
-134 -370 -187 -391 -206 -10 -9 -56 -38 -103 -65 -47 -27 -118 -70 -158 -96
-73 -48 -130 -70 -279 -109 -122 -33 -203 -98 -260 -212 -36 -72 -40 -108 -29
-258 5 -69 4 -119 -3 -145 -13 -47 -2 -65 40 -65 15 0 38 -4 51 -9 13 -6 111
-15 218 -21 107 -6 220 -14 250 -18 53 -7 55 -8 58 -39 l3 -33 -153 -75 c-84
-41 -162 -82 -172 -90 -11 -8 -41 -22 -68 -31 -26 -8 -48 -19 -48 -23 0 -4 21
-25 47 -47 26 -21 57 -49 69 -61 12 -13 28 -23 37 -23 8 0 17 -7 21 -15 3 -8
12 -15 20 -15 7 0 16 -6 19 -14 10 -27 96 -38 213 -27 126 11 161 22 218 74
12 11 81 59 153 108 137 91 172 106 318 135 l84 17 82 -72 c45 -39 90 -71 99
-71 9 0 43 -9 75 -20 52 -18 69 -19 159 -10 169 16 285 57 385 136 38 30 72
54 75 54 10 0 -83 -110 -112 -134 -50 -41 -148 -106 -160 -106 -6 0 -40 -15
-74 -34 -35 -19 -90 -39 -123 -44 -75 -13 -127 -27 -146 -38 -24 -15 -293
-296 -324 -339 -16 -22 -50 -64 -74 -94 -116 -137 -198 -265 -499 -776 -64
-108 -117 -186 -147 -215 -123 -118 -286 -335 -327 -434 l-30 -76 -42 32 c-22
17 -50 40 -61 50 -26 24 -155 118 -161 118 -2 0 -39 35 -82 78 -104 104 -318
390 -333 445 -20 73 -68 186 -89 207 -11 11 -20 27 -20 35 0 8 -4 15 -9 15 -5
0 -22 11 -38 24 -24 20 -40 24 -89 24 -32 0 -77 -6 -99 -13 -22 -7 -69 -16
-105 -19 -99 -10 -161 -26 -207 -52 -38 -22 -49 -39 -120 -181 -73 -147 -85
-164 -198 -290 -66 -74 -133 -154 -148 -176 -16 -23 -39 -51 -52 -62 -13 -11
-55 -54 -92 -96 -37 -42 -122 -124 -188 -182 -134 -117 -149 -140 -185 -284
-26 -105 -25 -127 6 -264 32 -140 28 -195 -21 -294 -73 -146 -126 -195 -260
-237 l-70 -22 92 -14 c88 -13 92 -15 104 -45 7 -17 13 -47 13 -67 -1 -38 -30
-271 -39 -308 -4 -14 0 -24 9 -28 8 -3 13 -11 10 -18 -3 -8 22 -16 84 -25 100
-15 249 -8 322 14 25 7 61 18 80 24 131 37 224 87 272 146 38 46 48 74 68 202
l17 112 -45 7 c-25 4 -102 10 -171 13 l-126 6 -3 36 -3 35 128 40 128 40 16
67 c9 37 24 77 33 90 9 12 26 36 38 53 18 26 120 108 179 145 17 10 -5 103
-43 180 -29 60 -104 143 -138 154 -51 16 -11 68 267 342 l245 242 27 -31 c14
-17 32 -41 40 -52 8 -12 38 -48 67 -82 46 -53 191 -282 215 -339 49 -116 81
-222 104 -335 14 -74 38 -160 53 -192 22 -47 35 -61 81 -88 74 -42 188 -90
216 -90 12 0 42 -11 67 -25 24 -13 57 -24 74 -24 16 0 44 -3 61 -7 32 -6 33
-5 33 27 0 19 -5 91 -11 160 -7 74 -8 146 -3 175 8 49 8 48 15 -41 5 -49 17
-134 29 -189 11 -54 20 -111 20 -126 0 -15 7 -44 15 -63 23 -54 19 -74 -16
-93 -43 -22 -116 -15 -264 25 -66 18 -140 37 -165 42 -25 5 -97 34 -160 65
-190 93 -252 114 -361 121 -75 4 -101 3 -114 -8 -59 -48 -84 -81 -114 -154
-18 -44 -46 -107 -62 -140 -39 -81 -38 -124 10 -275 67 -212 81 -299 101 -615
11 -159 26 -366 35 -460 15 -154 19 -174 43 -209 15 -21 39 -56 54 -78 15 -22
39 -47 54 -54 14 -8 50 -26 78 -40 28 -14 58 -30 66 -35 149 -85 225 -152 240
-213 6 -23 18 -66 27 -96 12 -38 17 -92 17 -177 0 -68 3 -123 7 -123 4 0 16
16 28 35 11 19 28 35 37 35 14 0 15 -7 10 -45 -9 -57 12 -62 43 -10 l20 35 94
-93 c51 -50 99 -106 106 -124 13 -31 57 -53 80 -39 5 3 14 -1 21 -9 7 -8 27
-15 46 -15 29 0 38 7 72 58 40 59 100 203 149 357 25 80 28 105 28 220 0 120
-3 134 -27 185 -28 58 -136 182 -144 165 -17 -37 -22 -38 -52 -4 -17 19 -32
32 -34 29 -2 -3 -39 -80 -83 -171 -44 -92 -82 -165 -84 -163 -7 6 39 142 83
242 l45 102 -33 0 c-44 0 -87 23 -116 62 -35 46 -39 181 -11 327 21 106 20
121 -5 121 -8 0 -14 4 -14 9 0 5 -21 11 -48 14 -26 3 -95 13 -153 22 -78 12
-121 14 -157 7 -50 -9 -50 -9 -56 19 -9 45 -24 271 -31 452 l-6 167 28 2 c15
0 39 0 53 -1 34 -3 220 -67 214 -74 -3 -3 11 -10 30 -17 20 -6 36 -15 36 -20
0 -4 8 -10 18 -14 33 -11 87 -47 85 -56 -2 -6 8 -10 22 -10 14 0 33 -9 42 -20
10 -11 23 -20 30 -20 6 0 16 -6 20 -12 4 -7 19 -19 33 -27 56 -32 64 -37 81
-51 37 -32 46 -38 66 -44 11 -4 28 -15 38 -26 10 -11 25 -20 33 -20 9 0 12 -3
9 -6 -6 -7 6 -15 105 -68 29 -15 91 -50 138 -76 47 -27 105 -54 130 -60 24 -7
78 -26 120 -42 78 -32 113 -41 242 -59 112 -17 138 -9 186 54 46 61 94 153
112 215 7 23 14 41 16 39 2 -1 -4 -63 -12 -137 -19 -183 -21 -171 31 -208 25
-18 50 -32 55 -32 6 0 10 -4 10 -8 0 -5 10 -14 23 -21 12 -7 40 -23 62 -37 22
-13 48 -27 58 -30 9 -4 17 -12 17 -19 0 -7 14 -15 31 -19 17 -3 28 -10 24 -16
-3 -5 0 -10 8 -10 8 0 26 -11 39 -25 14 -14 54 -38 90 -54 35 -16 70 -37 77
-45 8 -9 19 -16 26 -16 7 0 46 -22 86 -48 41 -26 89 -54 107 -61 17 -7 32 -17
32 -22 0 -5 5 -9 11 -9 16 0 98 -40 128 -62 13 -10 32 -18 42 -18 11 0 19 -4
19 -10 0 -5 8 -10 19 -10 10 0 29 -8 42 -19 39 -30 187 -98 289 -131 52 -17
104 -35 115 -40 11 -5 40 -13 65 -19 95 -21 129 -32 249 -81 69 -27 134 -50
145 -50 12 0 41 -6 66 -14 25 -8 72 -20 105 -27 33 -6 78 -17 100 -24 22 -7
105 -25 185 -40 80 -14 179 -33 220 -42 72 -14 130 -22 325 -42 116 -12 408
-60 417 -69 3 -4 16 -117 28 -252 11 -135 28 -265 36 -289 16 -51 18 -73 4
-51 -16 24 -87 250 -100 317 -7 35 -18 67 -24 72 -16 13 -114 32 -196 37 -36
3 -72 8 -80 11 -8 4 -73 12 -145 19 -168 15 -365 43 -387 55 -10 5 -34 9 -54
9 -41 0 -43 15 23 -168 90 -251 163 -394 253 -499 28 -32 85 -100 126 -151 42
-50 80 -92 84 -92 15 0 175 -179 236 -264 26 -37 32 -55 37 -127 19 -243 1
-569 -36 -635 -21 -38 -309 -466 -366 -544 -75 -103 -162 -193 -251 -258 -134
-99 -212 -175 -296 -287 -45 -60 -94 -122 -110 -136 -38 -34 -148 -77 -252
-98 l-83 -17 21 -26 c11 -14 20 -35 20 -45 0 -40 -33 -142 -79 -248 -67 -150
-94 -245 -72 -245 5 0 45 -16 88 -36 101 -47 175 -59 358 -59 200 1 316 21
380 65 91 63 161 157 195 264 15 45 6 56 -50 56 -23 0 -42 7 -53 20 -10 12
-30 20 -49 20 -38 1 -156 25 -165 34 -4 3 -2 23 3 44 l9 37 135 0 c74 0 149 4
166 8 19 5 54 32 91 71 32 34 75 70 94 80 40 20 262 86 289 86 11 0 41 5 68
11 47 10 50 12 55 47 4 20 2 66 -3 101 -8 59 -15 75 -80 178 -13 21 -11 27 30
85 160 229 256 353 332 430 76 78 98 93 190 137 107 50 256 143 321 201 53 46
91 123 83 169 -8 51 -55 348 -61 394 l-6 39 32 -24 c17 -12 43 -31 57 -40 37
-24 56 -37 114 -81 27 -20 54 -37 59 -37 4 0 6 -7 3 -15 -5 -11 1 -15 18 -15
13 0 28 -4 34 -10 13 -13 202 -104 247 -120 22 -6 51 -18 65 -26 15 -8 37 -14
49 -14 16 0 62 -47 171 -175 208 -243 272 -330 272 -367 0 -37 -78 -270 -131
-391 -38 -86 -124 -249 -199 -377 -21 -36 -73 -103 -115 -150 -89 -99 -183
-218 -245 -309 -69 -102 -122 -148 -245 -207 -60 -29 -132 -60 -160 -69 -84
-27 -79 -23 -63 -48 30 -45 29 -72 -3 -164 -39 -110 -68 -169 -127 -255 -44
-66 -45 -68 -27 -88 10 -11 25 -20 33 -20 8 0 39 -11 68 -25 103 -49 236 -76
394 -82 186 -7 323 8 392 43 76 39 153 121 193 206 52 111 53 121 12 136 -18
7 -45 12 -60 12 -15 0 -27 4 -27 9 0 14 -50 30 -115 36 -65 6 -145 24 -145 33
0 2 9 19 20 37 18 30 27 34 81 40 33 4 109 4 168 0 l108 -7 46 65 c74 104 141
171 201 201 69 35 105 44 235 62 57 7 106 16 109 19 12 12 13 116 2 151 -14
41 -88 154 -102 154 -15 0 -48 64 -48 93 0 56 196 519 265 627 23 36 87 125
143 199 148 195 199 310 202 451 3 121 5 115 -68 188 -37 37 -87 83 -111 102
-56 45 -170 198 -296 396 -55 87 -124 181 -152 210 -36 37 -53 62 -53 79 0 34
35 102 200 390 164 286 204 365 269 527 85 214 124 358 136 498 8 90 -8 222
-37 298 -17 45 -18 56 -7 63 21 13 21 13 62 -56 21 -36 44 -65 52 -65 8 0 20
-9 27 -20 7 -11 17 -20 21 -20 5 0 15 -7 23 -15 9 -8 24 -15 34 -15 10 0 20
-7 24 -15 3 -8 16 -15 30 -15 14 0 31 -6 38 -14 8 -7 25 -17 38 -21 46 -14
120 -75 120 -98 0 -7 6 -19 13 -26 23 -23 13 -138 -22 -231 -38 -103 -29 -95
41 35 64 119 102 177 111 168 16 -16 6 -136 -17 -201 -13 -37 -27 -76 -31 -87
l-7 -20 17 20 c9 11 33 52 52 90 20 39 51 94 70 122 19 29 37 71 40 94 l6 40
56 -6 c31 -4 72 -11 91 -16 19 -5 51 -9 71 -9 21 0 47 -8 62 -20 32 -25 47
-25 47 0 0 13 7 20 20 20 11 0 20 -4 20 -9 0 -11 66 -51 86 -51 17 0 18 28 3
120 -11 64 -16 74 -76 142 -64 72 -103 133 -103 162 0 8 -15 26 -32 41 l-33
26 60 -5 c116 -11 205 -23 211 -29 3 -2 17 -2 32 3 18 5 37 2 57 -8 37 -19 90
-17 122 3 13 9 60 20 105 25 44 5 83 12 86 14 7 8 -6 48 -26 81 -14 22 -39 39
-90 59 -47 19 -84 43 -113 72 -24 24 -51 44 -60 44 -34 0 -49 12 -49 40 0 49
48 53 118 10 52 -31 81 -37 112 -20 14 7 23 6 33 -5 36 -36 99 -25 170 29 19
15 39 26 44 26 6 0 13 7 17 15 3 9 18 15 34 15 39 0 42 6 25 40 -16 32 -56 55
-116 65 -21 3 -35 10 -33 14 3 4 -11 13 -32 19 -24 8 -46 25 -65 51 -15 22
-50 54 -77 72 -28 18 -49 37 -47 43 2 6 33 12 69 14 43 2 71 8 78 17 7 8 18
15 25 15 7 0 34 12 60 26 49 28 126 35 207 19 43 -8 123 19 132 45 4 8 9 20
12 27 3 6 -4 14 -15 18 -12 3 -21 12 -21 18 0 7 -25 25 -55 41 -30 15 -75 46
-100 68 -44 39 -48 40 -148 49 -56 5 -140 9 -187 8 -47 -1 -96 3 -110 9 -54
21 -130 33 -237 35 -62 1 -113 3 -113 4 0 0 37 26 83 55 127 84 171 96 367
100 96 3 173 9 185 15 11 6 40 21 65 33 25 12 57 33 72 47 27 26 29 26 136 19
105 -7 110 -6 158 20 27 15 60 38 73 52 22 23 29 24 97 20 65 -4 76 -2 101 18
15 13 33 24 38 24 13 1 59 60 47 60 -5 0 -64 36 -133 80 -120 77 -126 80 -184
80 -34 0 -73 7 -89 15 -15 8 -35 15 -42 15 -8 0 -14 5 -14 10 0 6 10 10 22 10
29 0 158 42 158 52 0 4 21 19 46 34 46 27 46 27 93 10 26 -9 70 -16 97 -15 27
0 71 -2 98 -6 40 -7 50 -5 58 9 5 9 17 16 27 16 10 0 21 8 25 18 3 9 8 22 12
29 3 7 -10 14 -35 18 -38 6 -131 68 -131 86 0 5 -5 9 -12 9 -7 0 -23 11 -37
24 -34 31 -80 45 -171 53 -70 5 -79 9 -140 54 -36 27 -89 59 -117 71 -29 12
-53 26 -53 31 0 4 8 6 18 3 9 -3 73 -7 142 -8 l125 -3 67 37 c73 42 93 45 124
23 15 -10 62 -16 151 -20 118 -6 135 -5 179 14 44 19 92 68 87 88 -1 5 -20 11
-43 15 -68 12 -141 52 -212 117 -37 35 -75 61 -87 61 -12 0 -24 6 -27 13 -4
11 -46 16 -170 21 -163 6 -165 7 -230 41 -36 19 -74 35 -85 35 -10 0 -19 4
-19 10 0 5 -22 12 -50 16 -27 4 -48 10 -45 14 6 10 -30 19 -80 21 -22 0 -51 4
-64 8 -23 6 -23 7 -6 24 28 29 145 77 185 77 21 0 51 -7 66 -15 16 -8 49 -15
74 -15 25 0 68 -7 95 -16 38 -12 105 -16 280 -17 l230 -2 55 34 c30 18 56 37
58 42 2 4 17 25 34 46 28 36 30 42 26 113 -4 84 -40 173 -104 257 -19 24 -34
48 -34 51 0 9 139 7 200 -3 38 -5 49 -3 69 14 13 12 29 21 35 21 15 1 46 65
46 96 0 40 -58 143 -113 202 -83 88 -267 242 -289 242 -11 0 -42 16 -68 35
-52 38 -60 41 -60 23 0 -7 31 -37 70 -67 72 -56 210 -201 210 -220 0 -6 -59
41 -131 104 -72 63 -139 115 -149 115 -10 0 -41 16 -69 35 -49 34 -71 43 -71
28 0 -5 43 -42 95 -83 52 -41 95 -78 95 -82 0 -5 20 -30 44 -56 41 -44 61 -86
68 -141 l3 -23 -132 -2 c-122 -2 -134 -4 -156 -24 -54 -51 -61 -152 -17 -227
34 -58 37 -85 13 -126 -20 -34 -21 -34 -59 -14 -16 8 -41 15 -56 15 -14 0 -28
3 -30 8 -2 4 -84 34 -182 67 -99 33 -184 65 -190 71 -6 6 -31 13 -56 17 -25 3
-79 18 -121 32 -103 33 -272 48 -479 40 -179 -7 -259 -23 -343 -71 -50 -27
-131 -111 -175 -181 -15 -24 -29 -43 -32 -43 -3 0 -11 20 -18 45 -8 32 -30 65
-70 108 -31 34 -80 91 -109 127 -40 52 -71 77 -143 120 -51 30 -102 65 -114
77 -21 23 -56 31 -56 13 0 -5 10 -15 23 -21 12 -7 24 -15 27 -18 3 -4 14 -11
26 -16 20 -10 131 -127 199 -210 18 -22 35 -53 39 -70 l7 -29 -22 19 c-12 11
-54 61 -94 110 -62 78 -85 97 -165 145 -51 30 -102 65 -114 77 -23 24 -41 29
-51 13 -3 -6 5 -14 19 -20 14 -5 26 -14 26 -19 0 -5 10 -11 23 -15 26 -6 230
-227 235 -254 2 -9 8 -21 13 -26 5 -6 9 -40 9 -76 0 -93 -32 -153 -124 -233
-182 -159 -230 -229 -262 -387 -37 -187 9 -417 181 -901 41 -114 84 -242 95
-285 26 -95 39 -247 28 -329 -4 -33 -12 -105 -17 -160 -17 -162 -34 -195 -152
-297 -27 -24 -54 -38 -70 -38 -15 0 -34 -7 -43 -15 -11 -11 -38 -15 -108 -15
-81 0 -103 4 -170 31 -42 17 -92 44 -110 60 -18 16 -76 64 -128 106 -52 43
-138 119 -190 169 -135 131 -218 198 -295 240 -16 9 -60 38 -96 65 -96 71
-157 95 -289 113 -63 9 -203 39 -310 67 -275 71 -282 73 -307 87 -12 6 -35 12
-52 12 -16 0 -33 4 -36 10 -3 5 -37 19 -75 30 -39 12 -92 32 -119 45 -27 14
-57 25 -68 25 -10 0 -23 4 -29 9 -5 6 -70 33 -144 61 -127 49 -162 64 -235
102 -16 9 -55 29 -85 45 -30 15 -56 31 -58 35 -2 4 -23 16 -47 27 -63 28 -172
100 -233 154 -29 26 -59 47 -67 47 -8 0 -15 6 -15 13 0 7 -29 32 -65 55 -36
23 -65 48 -65 56 0 8 -37 43 -82 79 -155 122 -174 156 -148 269 17 72 34 102
88 160 69 74 128 111 227 143 153 49 181 65 135 80 -11 3 -20 12 -20 20 0 11
-101 59 -168 80 -39 12 -103 51 -119 75 -15 22 -15 22 14 7 72 -37 144 -47
299 -40 82 4 213 6 291 4 149 -3 207 3 200 22 -2 7 -33 35 -69 62 -35 28 -72
58 -82 67 -20 20 -67 34 -150 44 -32 4 -71 13 -85 20 -14 8 -36 14 -47 14 -12
0 -38 14 -59 30 -21 17 -41 30 -46 30 -4 0 -23 14 -41 30 -35 33 -32 36 22 19
83 -26 316 -15 367 17 17 11 67 14 206 14 101 0 205 3 231 6 40 6 47 10 44 28
-4 25 -72 66 -110 66 -15 0 -30 5 -33 10 -9 15 -171 90 -193 90 -10 0 -58 9
-108 20 -49 11 -107 20 -129 20 -34 0 -51 8 -100 50 -84 71 -81 84 21 90 48 3
88 11 98 19 10 9 56 17 118 22 55 4 105 12 109 16 15 15 -58 54 -162 84 -57
17 -111 35 -119 40 -8 5 -27 14 -42 20 -14 6 -29 18 -33 26 -11 31 11 37 92
25 43 -6 123 -9 178 -6 84 4 110 9 170 36 38 17 76 37 83 43 11 10 33 8 100
-7 66 -15 115 -19 202 -16 109 3 117 4 153 32 47 36 44 57 -8 72 -22 6 -80 31
-130 54 -50 24 -114 46 -145 51 -30 4 -73 12 -95 18 -22 6 -85 11 -140 11 -77
1 -109 5 -140 20 -22 11 -55 19 -73 20 -20 0 -35 6 -38 15 -4 8 -12 15 -20 15
-16 0 -89 44 -99 60 -4 7 33 10 112 10 155 0 225 11 368 58 119 39 122 40 319
46 164 4 201 8 208 21 5 8 17 15 26 15 23 1 58 49 40 54 -7 2 -38 12 -68 21
-30 9 -91 35 -135 58 l-80 42 -235 -3 -235 -3 -62 30 c-69 33 -183 107 -183
119 0 5 18 21 40 38 22 16 40 35 40 41 0 7 -18 22 -40 33 -22 11 -40 24 -40
28 0 4 59 22 131 40 135 33 148 38 215 83 34 22 54 27 149 33 178 11 283 38
348 89 20 17 22 40 5 54 -7 6 -42 13 -78 15 -41 4 -84 14 -115 30 -150 76
-280 88 -495 49 -66 -12 -195 3 -274 32 -37 14 -71 29 -75 32 -9 10 57 63 104
84 22 10 84 32 138 50 53 18 97 36 97 41 0 15 -26 27 -120 58 -79 26 -117 32
-230 37 -121 6 -250 29 -250 45 0 9 103 29 200 39 76 8 97 16 205 71 115 60
123 63 203 66 46 2 122 11 169 20 74 15 87 21 109 49 37 49 32 55 -45 55 -49
0 -72 4 -81 15 -8 9 -29 15 -56 15 -25 0 -49 6 -58 15 -8 8 -30 18 -48 22 -18
3 -40 11 -48 18 -8 7 -42 15 -75 18 -33 4 -89 14 -125 24 -58 16 -104 18 -407
16 -189 -2 -343 1 -343 5 0 28 87 73 217 111 39 12 84 28 100 36 15 8 33 15
40 15 7 0 16 6 20 13 4 7 20 20 34 29 27 17 57 74 45 85 -4 4 -13 0 -22 -9
-13 -13 -22 -13 -72 -2 -31 8 -70 14 -87 14 -16 0 -43 7 -59 15 -15 8 -33 15
-40 15 -6 0 -24 8 -41 18 -26 15 -57 17 -247 15 -124 -1 -218 3 -218 8 0 5 44
30 98 55 99 48 152 81 152 96 0 4 -53 8 -117 8 -124 0 -263 13 -349 31 -40 9
-56 9 -75 -2 -13 -7 -36 -12 -51 -10 -36 3 -68 -15 -68 -39 0 -11 -18 -113
-40 -227 -40 -202 -42 -233 -20 -233 6 0 18 -6 26 -12 8 -7 28 -24 46 -38 17
-14 85 -79 152 -145 127 -126 251 -289 355 -467 64 -109 170 -344 206 -454
112 -342 114 -822 8 -1464 -27 -167 -58 -300 -155 -672 -60 -230 -62 -235 -79
-214 -29 37 -32 85 -10 156 29 96 156 593 191 754 79 352 110 656 90 873 -6
70 -13 157 -15 193 -5 73 -60 306 -106 450 -17 52 -65 163 -105 245 -58 117
-98 183 -187 300 -107 143 -282 335 -305 335 -5 0 -28 15 -49 33 -65 53 -97
76 -169 120 -38 24 -69 47 -69 52 0 6 16 11 36 13 21 2 45 12 55 23 31 34 65
138 79 241 8 53 21 136 29 185 25 151 38 266 34 313 -3 44 -4 43 -57 -92z
m-1160 -987 c25 -25 29 -37 29 -84 0 -30 -5 -68 -11 -86 -9 -26 -16 -31 -43
-31 -28 0 -44 11 -100 70 -60 64 -70 70 -106 70 -22 0 -40 4 -40 10 0 19 156
76 213 79 19 1 38 -9 58 -28z m-1211 -500 c0 -5 9 -12 20 -16 51 -16 78 -128
43 -181 -16 -25 -61 -50 -71 -40 -2 3 9 21 27 41 37 42 38 51 10 115 -18 42
-26 50 -54 56 -19 3 -38 3 -44 -1 -6 -3 -11 -2 -11 2 0 10 39 30 63 32 9 0 17
-3 17 -8z"/>
</g>
</svg>
